<svg xmlns="http://www.w3.org/2000/svg" width="32" height="32" viewBox="0 0 64 64" fill="none">
  <!-- Curly wool body -->
  <path d="M32 8c-3 0-5.5 1.2-7 3-2-1-4.5-0.5-6 1.5-1.8-0.8-4-0.2-5.2 1.8-1.5 0-2.8 1.5-2.8 3.2 0 0.5 0.1 1 0.3 1.5-1.2 1-1.8 2.5-1.3 4 0.3 0.8 0.8 1.5 1.5 2-0.2 1.2 0.3 2.5 1.5 3.2 0.5 0.3 1 0.5 1.5 0.5 0.2 1.5 1.2 2.8 2.8 3.2 0.5 3 2 5.5 4.2 7l-2 2.5c-1.5 2-1 3.5 0 4.5l3 2.5c0.5 0.5 1.2 0.3 1.5-0.2l3-4c1 0.3 2 0.5 3 0.5s2-0.2 3-0.5l3 4c0.3 0.5 1 0.7 1.5 0.2l3-2.5c1-1 1.5-2.5 0-4.5l-2-2.5c2.2-1.5 3.7-4 4.2-7 1.6-0.4 2.6-1.7 2.8-3.2 0.5 0 1-0.2 1.5-0.5 1.2-0.7 1.7-2 1.5-3.2 0.7-0.5 1.2-1.2 1.5-2 0.5-1.5-0.1-3-1.3-4 0.2-0.5 0.3-1 0.3-1.5 0-1.7-1.3-3.2-2.8-3.2-1.2-2-3.4-2.6-5.2-1.8-1.5-2-4-2.5-6-1.5-1.5-1.8-4-3-7-3z" fill="#1A1A1A" stroke="#1A1A1A" stroke-width="1.5"/>
  <!-- Ears -->
  <ellipse cx="14" cy="20" rx="4" ry="2.5" fill="#1A1A1A" stroke="#1A1A1A" stroke-width="1" transform="rotate(-30 14 20)"/>
  <ellipse cx="50" cy="20" rx="4" ry="2.5" fill="#1A1A1A" stroke="#1A1A1A" stroke-width="1" transform="rotate(30 50 20)"/>
  <!-- Face -->
  <ellipse cx="32" cy="28" rx="10" ry="12" fill="#FAFAF8" stroke="#1A1A1A" stroke-width="1.5"/>
  <!-- Sleepy eyes -->
  <path d="M27 25c0.5-1 1.5-1.5 2.5-1s1.5 1.5 1 2.5" stroke="#1A1A1A" stroke-width="1.5" stroke-linecap="round" fill="none"/>
  <path d="M33 25c0.5-1 1.5-1.5 2.5-1s1.5 1.5 1 2.5" stroke="#1A1A1A" stroke-width="1.5" stroke-linecap="round" fill="none"/>
  <!-- Nose -->
  <path d="M31 31c0.3 0.5 1 0.8 1.5 0.5" stroke="#1A1A1A" stroke-width="1.2" stroke-linecap="round" fill="none"/>
  <!-- Bow -->
  <path d="M25 42c-3-1-5 0-6 2s0 3 2 3c1.5 0 3-1 4-3z" fill="#1A1A1A" stroke="#1A1A1A" stroke-width="1"/>
  <path d="M39 42c3-1 5 0 6 2s0 3-2 3c-1.5 0-3-1-4-3z" fill="#1A1A1A" stroke="#1A1A1A" stroke-width="1"/>
  <circle cx="32" cy="42" r="2.5" fill="#1A1A1A" stroke="#1A1A1A" stroke-width="1"/>
</svg>