<svg xmlns="http://www.w3.org/2000/svg" width="280" height="64" viewBox="0 0 280 64" fill="none">
  <!-- Sheep mark (compact) -->
  <g transform="translate(0,0) scale(0.85)">
    <!-- Curly wool body -->
    <path d="M32 8c-3 0-5.5 1.2-7 3-2-1-4.5-0.5-6 1.5-1.8-0.8-4-0.2-5.2 1.8-1.5 0-2.8 1.5-2.8 3.2 0 0.5 0.1 1 0.3 1.5-1.2 1-1.8 2.5-1.3 4 0.3 0.8 0.8 1.5 1.5 2-0.2 1.2 0.3 2.5 1.5 3.2 0.5 0.3 1 0.5 1.5 0.5 0.2 1.5 1.2 2.8 2.8 3.2 0.5 3 2 5.5 4.2 7l-2 2.5c-1.5 2-1 3.5 0 4.5l3 2.5c0.5 0.5 1.2 0.3 1.5-0.2l3-4c1 0.3 2 0.5 3 0.5s2-0.2 3-0.5l3 4c0.3 0.5 1 0.7 1.5 0.2l3-2.5c1-1 1.5-2.5 0-4.5l-2-2.5c2.2-1.5 3.7-4 4.2-7 1.6-0.4 2.6-1.7 2.8-3.2 0.5 0 1-0.2 1.5-0.5 1.2-0.7 1.7-2 1.5-3.2 0.7-0.5 1.2-1.2 1.5-2 0.5-1.5-0.1-3-1.3-4 0.2-0.5 0.3-1 0.3-1.5 0-1.7-1.3-3.2-2.8-3.2-1.2-2-3.4-2.6-5.2-1.8-1.5-2-4-2.5-6-1.5-1.5-1.8-4-3-7-3z" fill="currentColor" stroke="currentColor" stroke-width="1.5"/>
    <!-- Ears -->
    <ellipse cx="14" cy="20" rx="4" ry="2.5" fill="currentColor" stroke="currentColor" stroke-width="1" transform="rotate(-30 14 20)"/>
    <ellipse cx="50" cy="20" rx="4" ry="2.5" fill="currentColor" stroke="currentColor" stroke-width="1" transform="rotate(30 50 20)"/>
    <!-- Face -->
    <ellipse cx="32" cy="28" rx="10" ry="12" fill="white" stroke="currentColor" stroke-width="1.5"/>
    <!-- Sleepy eyes -->
    <path d="M27 25c0.5-1 1.5-1.5 2.5-1s1.5 1.5 1 2.5" stroke="currentColor" stroke-width="1.5" stroke-linecap="round" fill="none"/>
    <path d="M33 25c0.5-1 1.5-1.5 2.5-1s1.5 1.5 1 2.5" stroke="currentColor" stroke-width="1.5" stroke-linecap="round" fill="none"/>
    <!-- Nose -->
    <path d="M31 31c0.3 0.5 1 0.8 1.5 0.5" stroke="currentColor" stroke-width="1.2" stroke-linecap="round" fill="none"/>
    <!-- Mouth -->
    <path d="M30.5 33c0.5 0.3 1.2 0.5 2 0.5s1.5-0.2 2-0.5" stroke="currentColor" stroke-width="1" stroke-linecap="round" fill="none"/>
    <!-- Bow -->
    <path d="M25 42c-3-1-5 0-6 2s0 3 2 3c1.5 0 3-1 4-3z" fill="currentColor" stroke="currentColor" stroke-width="1"/>
    <path d="M39 42c3-1 5 0 6 2s0 3-2 3c-1.5 0-3-1-4-3z" fill="currentColor" stroke="currentColor" stroke-width="1"/>
    <circle cx="32" cy="42" r="2.5" fill="currentColor" stroke="currentColor" stroke-width="1"/>
    <path d="M28 46c-1 3-2 5-3 6" stroke="currentColor" stroke-width="1.5" stroke-linecap="round" fill="none"/>
    <path d="M36 46c1 3 2 5 3 6" stroke="currentColor" stroke-width="1.5" stroke-linecap="round" fill="none"/>
  </g>
  <!-- Wordmark: "Wooly Lully" in Playfair Display style -->
  <text x="62" y="42" font-family="'Playfair Display', Georgia, serif" font-size="26" font-weight="600" fill="currentColor" letter-spacing="1">Wooly Lully</text>
</svg>