<svg xmlns="http://www.w3.org/2000/svg" width="20" height="20" viewBox="0 0 24 24" fill="none" stroke="currentColor" stroke-width="1.5" stroke-linecap="round" stroke-linejoin="round"><!-- Basin -->
<path d="M4 14c0 4 3.5 6 8 6s8-2 8-6"/>
<line x1="2" y1="14" x2="22" y2="14"/>
<!-- Water waves -->
<path d="M7 11c1-1.5 2.5-1.5 3.5 0s2.5 1.5 3.5 0 2.5-1.5 3.5 0"/>
<!-- Hand -->
<path d="M10 10V5.5a1.5 1.5 0 013 0V9"/>
<path d="M13 8V4.5a1.5 1.5 0 013 0V9"/>
<path d="M10 7V3.5a1.5 1.5 0 00-3 0V10"/></svg>